<svg width="228" height="158" viewBox="0 0 228 158" fill="none" xmlns="http://www.w3.org/2000/svg">
<path opacity="0.1" d="M207.757 14.1649C220.928 27.3086 228 42.0502 228 65.9467C228 107.997 197.689 139.366 152 158C179.5 144.024 187.524 123.109 190.647 105.261C192.446 94.9793 179.512 84.8756 169.114 83.9682C146.045 81.9618 127.861 64.1685 127.861 42.0502C127.861 30.8978 132.577 20.2021 140.97 12.3162C149.364 4.43027 160.747 0 172.617 0C186.338 0 199.458 5.88702 207.757 14.1649ZM79.883 14.1649C93.0541 27.3086 100.126 42.0502 100.126 65.9467C100.126 107.997 71.0227 139.366 25.3332 158C52.8125 144.034 60.3442 123.14 63.1153 105.301C64.7173 94.9867 51.6374 84.8756 41.2394 83.9682C18.1708 81.9618 -0.00012207 64.1685 -0.00012207 42.0502C-0.00012207 30.8978 4.71523 20.2021 13.1086 12.3162C21.502 4.43027 32.8859 0 44.7559 0C58.4768 0 71.5967 5.88702 79.8958 14.1649H79.883Z" fill="#030605"/>
</svg>
