<svg width="146" height="146" viewBox="0 0 146 146" fill="none" xmlns="http://www.w3.org/2000/svg">
<path opacity="0.2" d="M25 54.7145V51.8095H36.1467V26.8533C36.1467 12.0227 48.1693 0 63 0C77.8307 0 89.8533 12.0226 89.8533 26.8533V51.8095H101V54.7145C101 60.0102 98.8997 65.0897 95.1598 68.8389L89.8533 74.1587L99.0231 118.451C99.2671 119.629 97.6042 120.155 97.1261 119.051L93.3044 110.222L63.1623 99.4267L33.3552 108.698L28.8739 119.051C28.3957 120.155 26.7329 119.629 26.9769 118.451L36.1467 74.1587L30.8402 68.8389C27.1003 65.0897 25 60.0102 25 54.7145Z" fill="#28887A"/>
<path d="M46.2933 83.3175L40.823 77.8201C37.0936 74.0722 35 69.0001 35 63.7129V60.619H46.2933V35.2067C46.2933 20.1808 58.4742 8 73.5 8V8C88.5258 8 100.707 20.1809 100.707 35.2067V60.619H112V63.7129C112 69.0001 109.906 74.0722 106.177 77.8201L100.707 83.3175M46.2933 83.3175L35 138L43.4652 118.397M46.2933 83.3175H58.6133M100.707 83.3175H88.3867M100.707 83.3175L112 138L104.203 119.944M58.6133 83.3175H88.3867M58.6133 83.3175L51.0392 100.857M88.3867 83.3175L96.4063 101.889M96.4063 101.889L43.4652 118.397M96.4063 101.889L104.203 119.944M43.4652 118.397L51.0392 100.857M51.0392 100.857L104.203 119.944" stroke="#030605" stroke-width="4" stroke-linecap="round" stroke-linejoin="round"/>
<path d="M47 70L48.253 71.2057C50.1161 72.9985 52.6012 74 55.1868 74H91.8132C94.3988 74 96.8839 72.9985 98.747 71.2057L100 70" stroke="#030605" stroke-width="4" stroke-linecap="round" stroke-linejoin="round"/>
</svg>
