<svg width="146" height="146" viewBox="0 0 146 146" fill="none" xmlns="http://www.w3.org/2000/svg">
<path opacity="0.2" d="M14.1633 63.6527L8.43979 58.3081C6.63706 56.6247 6.77259 53.7268 8.72457 52.219L59.6586 12.8753C61.0908 11.769 63.0872 11.7621 64.527 12.8584L115.721 51.8377C117.853 53.4614 117.817 56.6817 115.648 58.2567L107.534 64.1498C106.096 65.1942 104.142 65.1646 102.736 64.0772L101.799 63.352V111C101.799 113.209 100.008 115 97.7986 115H26.3741C24.165 115 22.3741 113.209 22.3741 111V61.6764L19.2547 63.9578C17.7044 65.0917 15.5671 64.9636 14.1633 63.6527Z" fill="#28887A"/>
<path d="M32.3741 71.6764L29.2547 73.9578C27.7044 75.0917 25.5671 74.9636 24.1633 73.6527L18.4398 68.3081C16.6371 66.6247 16.7726 63.7268 18.7246 62.219L69.6586 22.8753C71.0908 21.769 73.0872 21.7621 74.527 22.8584L125.721 61.8377C127.853 63.4614 127.817 66.6817 125.648 68.2567L117.534 74.1498C116.096 75.1942 114.142 75.1646 112.736 74.0772L111.799 73.352M32.3741 71.6764L69.6576 44.4083C71.096 43.3563 73.0568 43.3827 74.4664 44.4731L111.799 73.352M32.3741 71.6764V121C32.3741 123.209 34.165 125 36.3741 125H107.799C110.008 125 111.799 123.209 111.799 121V73.352" stroke="#030605" stroke-width="4"/>
<path d="M52 82.0917V81.2L57.7273 86.2462L65.3636 78.6769L59 73H60.6603C64.5092 73 68.2237 74.416 71.0959 76.9783L71.817 77.6216C72.5858 78.3074 73.1173 79.2194 73.335 80.2264L74.8161 87.0775C74.8767 87.3579 75.0198 87.6137 75.2269 87.8122L90.0786 102.043C92.2533 104.126 92.3513 107.57 90.2987 109.774C88.156 112.075 84.5253 112.119 82.3278 109.871L67.0592 94.2481C66.7888 93.9714 66.4183 93.8154 66.0314 93.8154H59.2756C58.2896 93.8154 57.3493 93.3991 56.6864 92.6691L55.6407 91.5174C53.2979 88.9372 52 85.5769 52 82.0917Z" stroke="#030605" stroke-width="4" stroke-linejoin="round"/>
<circle cx="85.793" cy="105.69" r="2" fill="#030605"/>
</svg>
