<svg width="126" height="18" viewBox="0 0 126 18" fill="none" xmlns="http://www.w3.org/2000/svg">
<g clip-path="url(#clip0_718_822)">
<path d="M0 17.5681H3.216V5.08805H0V17.5681ZM6 3.36005H9.216V0.528054H6V3.36005Z" fill="#030605"/>
<path d="M5.67188 17.5681H8.88787V10.7521C8.88787 8.92805 9.89587 7.72805 11.5519 7.72805C13.2319 7.72805 14.2159 8.92805 14.2159 10.7521V17.5681H17.4319V10.2241C17.4319 6.43205 15.2719 4.84805 12.7039 4.84805C10.8319 4.84805 9.58387 5.68805 8.88787 6.79205V5.08805H5.67188V17.5681Z" fill="#030605"/>
<path d="M24.3474 17.7121C25.1394 17.7121 26.0514 17.5681 26.5314 17.1361V14.6641C26.0754 14.8081 25.6434 14.8561 25.3554 14.8561C24.2994 14.8561 23.9394 14.2321 23.9394 13.5841V7.65605H26.5074V5.08805H23.9394V1.89605H20.6994V5.08805H18.9234V7.65605H20.6994V14.1121C20.6994 16.6801 22.2354 17.7121 24.3474 17.7121Z" fill="#030605"/>
<path d="M34.2634 17.8081C36.4714 17.8081 38.2714 16.8961 39.3034 15.6001L37.8394 14.0401C36.9274 14.8321 35.8474 15.1681 34.6234 15.1681C32.7514 15.1681 31.2634 14.2801 30.8074 12.5761H40.1434C40.8394 7.08005 37.2394 4.84805 34.0714 4.84805C30.8794 4.84805 27.7594 7.12805 27.7594 11.3281C27.7594 15.4801 30.8314 17.8081 34.2634 17.8081ZM30.7594 10.2241C31.1674 8.42406 32.6074 7.56005 34.0954 7.56005C35.6074 7.56005 37.0954 8.44805 37.2874 10.2241H30.7594Z" fill="#030605"/>
<path d="M42.0703 17.5681H45.2863V12.1201C45.2863 9.62405 46.7983 7.94405 49.2223 7.94405C49.5103 7.94405 49.7503 7.96805 50.0383 8.01605V4.94405C49.7503 4.87205 49.4863 4.84805 49.1983 4.84805C46.9423 4.84805 45.7183 6.40805 45.2863 8.32805V5.08805H42.0703V17.5681Z" fill="#030605"/>
<path d="M51.8672 17.5681H55.0832V5.08805H51.8672V17.5681ZM41.8672 3.36005H45.0832V0.528054H41.8672V3.36005Z" fill="#030605"/>
<path d="M63.5151 17.8081C66.7551 17.8081 70.0911 15.5521 70.0911 11.3281C70.0911 7.10405 66.7551 4.84805 63.5151 4.84805C60.2511 4.84805 56.9391 7.10405 56.9391 11.3281C56.9391 15.5521 60.2511 17.8081 63.5151 17.8081ZM60.1071 11.3281C60.1071 9.09605 61.7151 7.75205 63.5151 7.75205C65.3151 7.75205 66.8991 9.09605 66.8991 11.3281C66.8991 13.5601 65.3151 14.9041 63.5151 14.9041C61.7151 14.9041 60.1071 13.5601 60.1071 11.3281Z" fill="#030605"/>
<path d="M71.9297 17.5681H75.1457V12.1201C75.1457 9.62405 77.3951 7.50603 79.8866 7.65605C79.8866 6.65319 79.8866 6.09092 79.8866 5.08805C77.9408 4.79306 75.5777 6.40805 75.1457 8.32805V5.08805H71.9297V17.5681Z" fill="#030605"/>
<path d="M82.4706 4.27205V5.08805C82.4706 5.08805 80.8957 5.08805 79.8866 5.08805C79.8866 6.09092 79.8866 6.65319 79.8866 7.65605C80.8957 7.65605 82.4706 7.65605 82.4706 7.65605V17.5681H85.6866V7.65605H88.9026V5.08805H85.6866V4.63205C85.6866 3.40805 86.2866 2.73605 87.5106 2.73605C87.7266 2.73605 88.3026 2.71205 88.9026 3.00005V0.480054C88.2066 0.0720539 87.3186 5.34058e-05 86.6706 5.34058e-05C85.0146 5.34058e-05 82.4706 0.600054 82.4706 4.27205Z" fill="#030605"/>
<path d="M90.6328 17.5681H93.8488V5.08805H90.6328V17.5681ZM96.6328 3.36005H99.8488V0.528054H96.6328V3.36005Z" fill="#030605"/>
<path d="M96.3047 17.5681H99.5207V12.1201C99.5207 9.62405 101.033 7.94405 103.457 7.94405C103.745 7.94405 103.985 7.96805 104.273 8.01605V4.94405C103.985 4.87205 103.721 4.84805 103.433 4.84805C101.177 4.84805 99.9527 6.40805 99.5207 8.32805V5.08805H96.3047V17.5681Z" fill="#030605"/>
<path d="M114.046 17.5681H117.262V10.4641C117.262 8.68805 118.27 7.72805 119.686 7.72805C121.078 7.72805 121.99 8.68805 121.99 10.4641V17.5681H125.23V10.3201C125.23 6.50405 123.31 4.84805 120.67 4.84805C118.63 4.84805 117.262 5.78405 116.542 6.93605C115.774 5.49605 114.43 4.84805 112.894 4.84805C111.142 4.84805 109.99 5.64005 109.318 6.69605V5.08805H106.102V17.5681H109.318V10.4641C109.318 8.68805 110.326 7.72805 111.742 7.72805C113.11 7.72805 114.046 8.68805 114.046 10.4641V17.5681Z" fill="#030605"/>
</g>
<defs>
<clipPath id="clip0_718_822">
<rect width="125.23" height="17.808" fill="white"/>
</clipPath>
</defs>
</svg>
