<svg width="146" height="146" viewBox="0 0 146 146" fill="none" xmlns="http://www.w3.org/2000/svg">
<path opacity="0.2" d="M17 12H44.9328H81.9076H109C111.209 12 113 13.7909 113 16V26.3306V41.5041V54.9917V70.1653V85.3388V99.6694V110C113 112.209 111.209 114 109 114H81.1723H44.1975H17C14.7909 114 13 112.209 13 110V99.6694V85.3388V70.1653V54.9917V41.5041V26.3306V16C13 13.7909 14.7909 12 17 12Z" fill="#28887A"/>
<path d="M56.0168 25H30C27.7909 25 26 26.7909 26 29V38.4876M56.0168 25V38.4876M56.0168 25H90.7731M56.0168 38.4876H73.395M56.0168 38.4876H37.8487M26 38.4876H37.8487M26 38.4876V52.7686M90.7731 25H116C118.209 25 120 26.7909 120 29V38.4876M90.7731 25V38.4876M90.7731 38.4876H73.395M90.7731 38.4876H107.361M120 38.4876V52.7686M120 38.4876H107.361M73.395 38.4876V52.7686M73.395 52.7686H55.6218M73.395 52.7686H90.3782M120 52.7686H107.361M120 52.7686V65.4628M107.361 38.4876V52.7686M107.361 52.7686H90.3782M37.8487 38.4876V52.7686M37.8487 52.7686H26M37.8487 52.7686H55.6218M26 52.7686V65.4628M55.6218 52.7686V65.4628M55.6218 65.4628H73M55.6218 65.4628H37.8487M26 65.4628V79.7438M26 65.4628H37.8487M90.3782 52.7686V65.4628M90.3782 65.4628H73M90.3782 65.4628H107.361M120 65.4628V79.7438M120 65.4628H107.361M73 65.4628V79.7438M73 79.7438H55.4244M73 79.7438H90.1807M26 79.7438H37.8487M26 79.7438V94.0248M120 79.7438H107.361M120 79.7438V94.0248M107.361 65.4628V79.7438M107.361 79.7438H90.1807M37.8487 65.4628V79.7438M37.8487 79.7438H55.4244M55.4244 79.7438V94.0248M55.4244 94.0248H37.8487M55.4244 94.0248H72.8025M120 94.0248V107.512M120 94.0248H107.361M90.1807 79.7438V94.0248M90.1807 94.0248H72.8025M90.1807 94.0248H107.361M37.8487 94.0248H26M37.8487 94.0248V107.512M26 94.0248V107.512M37.8487 107.512H26M37.8487 107.512H55.3256M26 107.512V117C26 119.209 27.7909 121 30 121H55.3256M72.8025 94.0248V107.512M72.8025 107.512H55.3256M72.8025 107.512H90.0819M120 107.512V117C120 119.209 118.209 121 116 121H90.0819M120 107.512H107.361M107.361 94.0248V107.512M107.361 107.512H90.0819M55.3256 107.512V121M55.3256 121H90.0819M90.0819 107.512V121" stroke="#030605" stroke-width="4"/>
</svg>
